<?xml version="1.0" encoding="utf-8"?>
<!-- Generator: Adobe Illustrator 28.0.0, SVG Export Plug-In . SVG Version: 6.00 Build 0)  -->
<svg version="1.1" id="Réteg_1" xmlns="http://www.w3.org/2000/svg" xmlns:xlink="http://www.w3.org/1999/xlink" x="0px" y="0px"
	 viewBox="0 0 76.3 16.4" style="enable-background:new 0 0 76.3 16.4;" xml:space="preserve">
<style type="text/css">
	.st0{fill:#FDCA00;}
	.st1{fill:#FFFFFF;}
</style>
<g id="logo-neo_adobe_express" transform="translate(-134.464 -343.115)">
	<path id="Path_394" class="st0" d="M134.5,344.8v-1.7h16.4v16.3h-16.4V344.8z"/>
	<path id="Path_395" class="st1" d="M174.6,349.3c0.9-3.4,3.8-5.8,7.3-6.1c4.7-0.6,9.3,3.8,8.8,8.3h-14.7c0.1,0.7,0.3,1.4,0.5,2
		c1.2,3.3,4.9,5,8.2,3.8c1-0.4,1.9-1,2.6-1.8c0.4-0.5,1-0.8,1.7-0.7c0.3,0,0.6,0,0.9,0c-0.9,2.6-4.8,5.6-9.5,4.4
		C176.1,358.1,173.5,353.6,174.6,349.3 M178.6,346.3c-1.1,0.9-1.9,2.1-2.2,3.4h12.4c-0.9-3.4-4.4-5.5-7.8-4.6
		C180.1,345.3,179.3,345.7,178.6,346.3L178.6,346.3z"/>
	<path id="Path_396" class="st1" d="M209.7,347.3c1.7,2.9,1.5,6.5-0.7,9.1c-1.9,2.7-5.4,3.9-8.5,2.9c-3.2-0.7-5.6-3.4-6.1-6.7
		c-0.6-3.7,1.4-7.3,4.9-8.8c3.4-1.5,7.5-0.4,9.8,2.5C209.3,346.6,209.4,346.9,209.7,347.3 M196.4,353.3c0.1,0.2,0.2,0.4,0.3,0.7
		c1.4,3.3,5.2,4.7,8.5,3.3c3.3-1.4,4.7-5.2,3.3-8.5c-0.6-1.3-1.6-2.4-2.9-3.1c-2.3-1.2-5-0.9-7,0.7
		C196.4,348,195.6,350.7,196.4,353.3z"/>
	<path id="Path_397" class="st1" d="M166.9,344.3c2.4,1.4,3.9,4.1,3.9,6.9c0.1,2.6,0,5.3,0,7.9c0,0.1,0,0.2,0,0.3h-1.8
		c0-0.2,0-0.5,0-0.7c0-2.5,0-5.1,0-7.6c-0.1-3.5-3-6.3-6.6-6.2c-2.7,0.1-5.1,1.9-6,4.5c-0.2,0.7-0.3,1.5-0.3,2.3c0,2.6,0,5.2,0,7.8
		h-1.8v-12.8c0,0,0.1-0.1,0.1-0.1c0.8,0.1,1.7-0.3,2.2-1C159.4,342.9,163.6,342.3,166.9,344.3z"/>
</g>
</svg>
