<svg xmlns="http://www.w3.org/2000/svg" width="76.333" height="16.432" viewBox="0 0 76.333 16.432">
  <g id="logo-neo_adobe_express" transform="translate(-134.464 -343.115)">
    <path id="Path_394" data-name="Path 394" d="M134.464,345.073V343.41h16.39v16.33h-16.39Z" transform="translate(0 -0.253)" fill="#fdca00"/>
    <path id="Path_395" data-name="Path 395" d="M413.651,349.266a8.14,8.14,0,0,1,7.276-6.1c4.67-.563,9.3,3.777,8.844,8.328H415.113a16.891,16.891,0,0,0,.47,2.039,6.407,6.407,0,0,0,10.828,2.027,1.756,1.756,0,0,1,1.675-.731,7.08,7.08,0,0,0,.857.006c-.926,2.641-4.8,5.625-9.45,4.421a8.227,8.227,0,0,1-5.842-9.988m3.977-2.974a6.08,6.08,0,0,0-2.212,3.441h12.362A6.392,6.392,0,0,0,417.628,346.292Z" transform="translate(-239.026 0)"/>
    <path id="Path_396" data-name="Path 396" d="M567.877,347.382a7.9,7.9,0,0,1-.668,9.09,7.728,7.728,0,0,1-8.533,2.893,7.852,7.852,0,0,1-6.061-6.676,8.137,8.137,0,0,1,4.872-8.755,8.239,8.239,0,0,1,9.763,2.517c.217.283.4.588.628.93M554.6,353.389c.087.221.167.445.263.663a6.431,6.431,0,1,0,8.885-8.265,6.388,6.388,0,0,0-7.037.689A6.3,6.3,0,0,0,554.6,353.389Z" transform="translate(-358.201 -0.13)"/>
    <path id="Path_397" data-name="Path 397" d="M286.547,344.52a8.042,8.042,0,0,1,3.919,6.875c.066,2.644.018,5.291.018,7.937a2.654,2.654,0,0,1-.039.308h-1.758c0-.244,0-.492,0-.741-.006-2.527.022-5.054-.026-7.579a6.417,6.417,0,0,0-12.543-1.725,8.284,8.284,0,0,0-.288,2.254c-.034,2.6-.013,5.193-.013,7.835h-1.76V346.912c.019-.016.059-.076.088-.072a2.249,2.249,0,0,0,2.169-.962A8.155,8.155,0,0,1,286.547,344.52Z" transform="translate(-119.613 -0.176)"/>
  </g>
</svg>
