<svg xmlns="http://www.w3.org/2000/svg" width="176" height="64" viewBox="0 0 176 64">
  <g id="Group_130" data-name="Group 130" transform="translate(-598 -6202)">
    <rect id="Rectangle_332" data-name="Rectangle 332" width="8" height="8" transform="translate(598 6202)" fill="#242325" opacity="0.33"/>
    <rect id="Rectangle_332-2" data-name="Rectangle 332" width="8" height="8" transform="translate(626 6202)" fill="#242325" opacity="0.33"/>
    <rect id="Rectangle_332-3" data-name="Rectangle 332" width="8" height="8" transform="translate(654 6202)" fill="#242325" opacity="0.33"/>
    <rect id="Rectangle_332-4" data-name="Rectangle 332" width="8" height="8" transform="translate(682 6202)" fill="#242325" opacity="0.33"/>
    <rect id="Rectangle_332-5" data-name="Rectangle 332" width="8" height="8" transform="translate(710 6202)" fill="#242325" opacity="0.33"/>
    <rect id="Rectangle_332-6" data-name="Rectangle 332" width="8" height="8" transform="translate(738 6202)" fill="#242325" opacity="0.33"/>
    <rect id="Rectangle_332-7" data-name="Rectangle 332" width="8" height="8" transform="translate(766 6202)" fill="#242325" opacity="0.33"/>
    <rect id="Rectangle_332-8" data-name="Rectangle 332" width="8" height="8" transform="translate(626 6230)" fill="#242325" opacity="0.33"/>
    <rect id="Rectangle_332-9" data-name="Rectangle 332" width="8" height="8" transform="translate(654 6230)" fill="#242325" opacity="0.33"/>
    <rect id="Rectangle_332-10" data-name="Rectangle 332" width="8" height="8" transform="translate(682 6230)" fill="#242325" opacity="0.33"/>
    <rect id="Rectangle_332-11" data-name="Rectangle 332" width="8" height="8" transform="translate(710 6230)" fill="#242325" opacity="0.33"/>
    <rect id="Rectangle_332-12" data-name="Rectangle 332" width="8" height="8" transform="translate(738 6230)" fill="#242325" opacity="0.33"/>
    <rect id="Rectangle_332-13" data-name="Rectangle 332" width="8" height="8" transform="translate(766 6230)" fill="#242325" opacity="0.33"/>
    <rect id="Rectangle_332-14" data-name="Rectangle 332" width="8" height="8" transform="translate(598 6258)" fill="#242325" opacity="0.33"/>
    <rect id="Rectangle_332-15" data-name="Rectangle 332" width="8" height="8" transform="translate(626 6258)" fill="#242325" opacity="0.33"/>
    <rect id="Rectangle_332-16" data-name="Rectangle 332" width="8" height="8" transform="translate(654 6258)" fill="#242325" opacity="0.33"/>
    <rect id="Rectangle_332-17" data-name="Rectangle 332" width="8" height="8" transform="translate(682 6258)" fill="#242325" opacity="0.33"/>
    <rect id="Rectangle_332-18" data-name="Rectangle 332" width="8" height="8" transform="translate(710 6258)" fill="#242325" opacity="0.33"/>
    <rect id="Rectangle_332-19" data-name="Rectangle 332" width="8" height="8" transform="translate(738 6258)" fill="#242325" opacity="0.33"/>
    <rect id="Rectangle_332-20" data-name="Rectangle 332" width="8" height="8" transform="translate(766 6258)" fill="#242325" opacity="0.33"/>
  </g>
</svg>
