<svg xmlns="http://www.w3.org/2000/svg" width="176" height="176" viewBox="0 0 176 176">
  <g id="Group_204" data-name="Group 204" transform="translate(-475 -3189)">
    <rect id="Rectangle_332" data-name="Rectangle 332" width="8" height="8" transform="translate(475 3189)" fill="#242325" opacity="0.2"/>
    <rect id="Rectangle_332-2" data-name="Rectangle 332" width="8" height="8" transform="translate(503 3189)" fill="#242325" opacity="0.2"/>
    <rect id="Rectangle_332-3" data-name="Rectangle 332" width="8" height="8" transform="translate(531 3189)" fill="#242325" opacity="0.2"/>
    <rect id="Rectangle_332-4" data-name="Rectangle 332" width="8" height="8" transform="translate(559 3189)" fill="#242325" opacity="0.2"/>
    <rect id="Rectangle_332-5" data-name="Rectangle 332" width="8" height="8" transform="translate(587 3189)" fill="#242325" opacity="0.2"/>
    <rect id="Rectangle_332-6" data-name="Rectangle 332" width="8" height="8" transform="translate(615 3189)" fill="#242325" opacity="0.2"/>
    <rect id="Rectangle_332-7" data-name="Rectangle 332" width="8" height="8" transform="translate(643 3189)" fill="#242325" opacity="0.2"/>
    <rect id="Rectangle_332-8" data-name="Rectangle 332" width="8" height="8" transform="translate(475 3217)" fill="#242325" opacity="0.2"/>
    <rect id="Rectangle_332-9" data-name="Rectangle 332" width="8" height="8" transform="translate(503 3217)" fill="#242325" opacity="0.2"/>
    <rect id="Rectangle_332-10" data-name="Rectangle 332" width="8" height="8" transform="translate(531 3217)" fill="#242325" opacity="0.2"/>
    <rect id="Rectangle_332-11" data-name="Rectangle 332" width="8" height="8" transform="translate(559 3217)" fill="#242325" opacity="0.2"/>
    <rect id="Rectangle_332-12" data-name="Rectangle 332" width="8" height="8" transform="translate(587 3217)" fill="#242325" opacity="0.2"/>
    <rect id="Rectangle_332-13" data-name="Rectangle 332" width="8" height="8" transform="translate(615 3217)" fill="#242325" opacity="0.2"/>
    <rect id="Rectangle_332-14" data-name="Rectangle 332" width="8" height="8" transform="translate(643 3217)" fill="#242325" opacity="0.2"/>
    <rect id="Rectangle_332-15" data-name="Rectangle 332" width="8" height="8" transform="translate(475 3245)" fill="#242325" opacity="0.2"/>
    <rect id="Rectangle_332-16" data-name="Rectangle 332" width="8" height="8" transform="translate(503 3245)" fill="#242325" opacity="0.2"/>
    <rect id="Rectangle_332-17" data-name="Rectangle 332" width="8" height="8" transform="translate(531 3245)" fill="#fc0"/>
    <rect id="Rectangle_332-18" data-name="Rectangle 332" width="8" height="8" transform="translate(559 3245)" fill="#242325" opacity="0.2"/>
    <rect id="Rectangle_332-19" data-name="Rectangle 332" width="8" height="8" transform="translate(587 3245)" fill="#242325" opacity="0.2"/>
    <rect id="Rectangle_332-20" data-name="Rectangle 332" width="8" height="8" transform="translate(615 3245)" fill="#242325" opacity="0.2"/>
    <rect id="Rectangle_332-21" data-name="Rectangle 332" width="8" height="8" transform="translate(643 3245)" fill="#242325" opacity="0.2"/>
    <rect id="Rectangle_332-22" data-name="Rectangle 332" width="8" height="8" transform="translate(475 3273)" fill="#242325" opacity="0.2"/>
    <rect id="Rectangle_332-23" data-name="Rectangle 332" width="8" height="8" transform="translate(503 3273)" fill="#242325" opacity="0.2"/>
    <rect id="Rectangle_332-24" data-name="Rectangle 332" width="8" height="8" transform="translate(531 3273)" fill="#242325" opacity="0.2"/>
    <rect id="Rectangle_332-25" data-name="Rectangle 332" width="8" height="8" transform="translate(559 3273)" fill="#242325" opacity="0.2"/>
    <rect id="Rectangle_332-26" data-name="Rectangle 332" width="8" height="8" transform="translate(587 3273)" fill="#242325" opacity="0.2"/>
    <rect id="Rectangle_332-27" data-name="Rectangle 332" width="8" height="8" transform="translate(615 3273)" fill="#fc0"/>
    <rect id="Rectangle_332-28" data-name="Rectangle 332" width="8" height="8" transform="translate(643 3273)" fill="#242325" opacity="0.2"/>
    <rect id="Rectangle_332-29" data-name="Rectangle 332" width="8" height="8" transform="translate(475 3301)" fill="#242325" opacity="0.2"/>
    <rect id="Rectangle_332-30" data-name="Rectangle 332" width="8" height="8" transform="translate(503 3301)" fill="#242325" opacity="0.2"/>
    <rect id="Rectangle_332-31" data-name="Rectangle 332" width="8" height="8" transform="translate(531 3301)" fill="#242325" opacity="0.2"/>
    <rect id="Rectangle_332-32" data-name="Rectangle 332" width="8" height="8" transform="translate(559 3301)" fill="#242325" opacity="0.2"/>
    <rect id="Rectangle_332-33" data-name="Rectangle 332" width="8" height="8" transform="translate(587 3301)" fill="#242325" opacity="0.2"/>
    <rect id="Rectangle_332-34" data-name="Rectangle 332" width="8" height="8" transform="translate(615 3301)" fill="#242325" opacity="0.2"/>
    <rect id="Rectangle_332-35" data-name="Rectangle 332" width="8" height="8" transform="translate(643 3301)" fill="#242325" opacity="0.2"/>
    <rect id="Rectangle_332-36" data-name="Rectangle 332" width="8" height="8" transform="translate(475 3329)" fill="#242325" opacity="0.2"/>
    <rect id="Rectangle_332-37" data-name="Rectangle 332" width="8" height="8" transform="translate(503 3329)" fill="#242325" opacity="0.2"/>
    <rect id="Rectangle_332-38" data-name="Rectangle 332" width="8" height="8" transform="translate(531 3329)" fill="#fc0"/>
    <rect id="Rectangle_332-39" data-name="Rectangle 332" width="8" height="8" transform="translate(559 3329)" fill="#242325" opacity="0.2"/>
    <rect id="Rectangle_332-40" data-name="Rectangle 332" width="8" height="8" transform="translate(587 3329)" fill="#242325" opacity="0.2"/>
    <rect id="Rectangle_332-41" data-name="Rectangle 332" width="8" height="8" transform="translate(615 3329)" fill="#242325" opacity="0.2"/>
    <rect id="Rectangle_332-42" data-name="Rectangle 332" width="8" height="8" transform="translate(643 3329)" fill="#242325" opacity="0.2"/>
    <rect id="Rectangle_332-43" data-name="Rectangle 332" width="8" height="8" transform="translate(475 3357)" fill="#242325" opacity="0.2"/>
    <rect id="Rectangle_332-44" data-name="Rectangle 332" width="8" height="8" transform="translate(503 3357)" fill="#242325" opacity="0.2"/>
    <rect id="Rectangle_332-45" data-name="Rectangle 332" width="8" height="8" transform="translate(531 3357)" fill="#242325" opacity="0.2"/>
    <rect id="Rectangle_332-46" data-name="Rectangle 332" width="8" height="8" transform="translate(559 3357)" fill="#242325" opacity="0.2"/>
    <rect id="Rectangle_332-47" data-name="Rectangle 332" width="8" height="8" transform="translate(587 3357)" fill="#242325" opacity="0.2"/>
    <rect id="Rectangle_332-48" data-name="Rectangle 332" width="8" height="8" transform="translate(615 3357)" fill="#242325" opacity="0.2"/>
    <rect id="Rectangle_332-49" data-name="Rectangle 332" width="8" height="8" transform="translate(643 3357)" fill="#242325" opacity="0.2"/>
  </g>
</svg>
