<svg xmlns="http://www.w3.org/2000/svg" width="119" height="119" viewBox="0 0 119 119">
  <g id="Group_182" data-name="Group 182" transform="translate(-402 -3183)">
    <rect id="Rectangle_332" data-name="Rectangle 332" width="5" height="5" transform="translate(402 3183)" fill="#242325" opacity="0.2"/>
    <rect id="Rectangle_332-2" data-name="Rectangle 332" width="5" height="5" transform="translate(421 3183)" fill="#242325" opacity="0.2"/>
    <rect id="Rectangle_332-3" data-name="Rectangle 332" width="5" height="5" transform="translate(440 3183)" fill="#242325" opacity="0.2"/>
    <rect id="Rectangle_332-4" data-name="Rectangle 332" width="5" height="5" transform="translate(459 3183)" fill="#242325" opacity="0.2"/>
    <rect id="Rectangle_332-5" data-name="Rectangle 332" width="5" height="5" transform="translate(478 3183)" fill="#242325" opacity="0.2"/>
    <rect id="Rectangle_332-6" data-name="Rectangle 332" width="5" height="5" transform="translate(497 3183)" fill="#242325" opacity="0.2"/>
    <rect id="Rectangle_332-7" data-name="Rectangle 332" width="5" height="5" transform="translate(516 3183)" fill="#242325" opacity="0.2"/>
    <rect id="Rectangle_332-8" data-name="Rectangle 332" width="5" height="5" transform="translate(402 3202)" fill="#242325" opacity="0.2"/>
    <rect id="Rectangle_332-9" data-name="Rectangle 332" width="5" height="5" transform="translate(421 3202)" fill="#242325" opacity="0.2"/>
    <rect id="Rectangle_332-10" data-name="Rectangle 332" width="5" height="5" transform="translate(440 3202)" fill="#242325" opacity="0.2"/>
    <rect id="Rectangle_332-11" data-name="Rectangle 332" width="5" height="5" transform="translate(459 3202)" fill="#242325" opacity="0.2"/>
    <rect id="Rectangle_332-12" data-name="Rectangle 332" width="5" height="5" transform="translate(478 3202)" fill="#242325" opacity="0.2"/>
    <rect id="Rectangle_332-13" data-name="Rectangle 332" width="5" height="5" transform="translate(497 3202)" fill="#242325" opacity="0.2"/>
    <rect id="Rectangle_332-14" data-name="Rectangle 332" width="5" height="5" transform="translate(516 3202)" fill="#242325" opacity="0.2"/>
    <rect id="Rectangle_332-15" data-name="Rectangle 332" width="5" height="5" transform="translate(402 3221)" fill="#242325" opacity="0.2"/>
    <rect id="Rectangle_332-16" data-name="Rectangle 332" width="5" height="5" transform="translate(421 3221)" fill="#242325" opacity="0.2"/>
    <path id="Path_489" data-name="Path 489" d="M0,0H5V5H0Z" transform="translate(440 3221)" fill="#fc0"/>
    <rect id="Rectangle_332-17" data-name="Rectangle 332" width="5" height="5" transform="translate(459 3221)" fill="#242325" opacity="0.2"/>
    <rect id="Rectangle_332-18" data-name="Rectangle 332" width="5" height="5" transform="translate(478 3221)" fill="#242325" opacity="0.2"/>
    <rect id="Rectangle_332-19" data-name="Rectangle 332" width="5" height="5" transform="translate(497 3221)" fill="#242325" opacity="0.2"/>
    <rect id="Rectangle_332-20" data-name="Rectangle 332" width="5" height="5" transform="translate(516 3221)" fill="#242325" opacity="0.2"/>
    <rect id="Rectangle_332-21" data-name="Rectangle 332" width="5" height="5" transform="translate(402 3240)" fill="#242325" opacity="0.2"/>
    <rect id="Rectangle_332-22" data-name="Rectangle 332" width="5" height="5" transform="translate(421 3240)" fill="#242325" opacity="0.2"/>
    <rect id="Rectangle_332-23" data-name="Rectangle 332" width="5" height="5" transform="translate(440 3240)" fill="#242325" opacity="0.2"/>
    <rect id="Rectangle_332-24" data-name="Rectangle 332" width="5" height="5" transform="translate(459 3240)" fill="#242325" opacity="0.2"/>
    <rect id="Rectangle_332-25" data-name="Rectangle 332" width="5" height="5" transform="translate(478 3240)" fill="#242325" opacity="0.2"/>
    <path id="Path_488" data-name="Path 488" d="M0,0H5V5H0Z" transform="translate(497 3240)" fill="#fc0"/>
    <rect id="Rectangle_332-26" data-name="Rectangle 332" width="5" height="5" transform="translate(516 3240)" fill="#242325" opacity="0.2"/>
    <rect id="Rectangle_332-27" data-name="Rectangle 332" width="5" height="5" transform="translate(402 3259)" fill="#242325" opacity="0.2"/>
    <rect id="Rectangle_332-28" data-name="Rectangle 332" width="5" height="5" transform="translate(421 3259)" fill="#242325" opacity="0.2"/>
    <rect id="Rectangle_332-29" data-name="Rectangle 332" width="5" height="5" transform="translate(440 3259)" fill="#242325" opacity="0.2"/>
    <rect id="Rectangle_332-30" data-name="Rectangle 332" width="5" height="5" transform="translate(459 3259)" fill="#242325" opacity="0.2"/>
    <rect id="Rectangle_332-31" data-name="Rectangle 332" width="5" height="5" transform="translate(478 3259)" fill="#242325" opacity="0.2"/>
    <rect id="Rectangle_332-32" data-name="Rectangle 332" width="5" height="5" transform="translate(497 3259)" fill="#242325" opacity="0.2"/>
    <rect id="Rectangle_332-33" data-name="Rectangle 332" width="5" height="5" transform="translate(516 3259)" fill="#242325" opacity="0.2"/>
    <rect id="Rectangle_332-34" data-name="Rectangle 332" width="5" height="5" transform="translate(402 3278)" fill="#242325" opacity="0.2"/>
    <rect id="Rectangle_332-35" data-name="Rectangle 332" width="5" height="5" transform="translate(421 3278)" fill="#242325" opacity="0.2"/>
    <rect id="Rectangle_332-36" data-name="Rectangle 332" width="5" height="5" transform="translate(440 3278)" fill="#fc0"/>
    <rect id="Rectangle_332-37" data-name="Rectangle 332" width="5" height="5" transform="translate(459 3278)" fill="#242325" opacity="0.2"/>
    <rect id="Rectangle_332-38" data-name="Rectangle 332" width="5" height="5" transform="translate(478 3278)" fill="#242325" opacity="0.2"/>
    <rect id="Rectangle_332-39" data-name="Rectangle 332" width="5" height="5" transform="translate(497 3278)" fill="#242325" opacity="0.2"/>
    <rect id="Rectangle_332-40" data-name="Rectangle 332" width="5" height="5" transform="translate(516 3278)" fill="#242325" opacity="0.2"/>
    <rect id="Rectangle_332-41" data-name="Rectangle 332" width="5" height="5" transform="translate(402 3297)" fill="#242325" opacity="0.2"/>
    <rect id="Rectangle_332-42" data-name="Rectangle 332" width="5" height="5" transform="translate(421 3297)" fill="#242325" opacity="0.2"/>
    <rect id="Rectangle_332-43" data-name="Rectangle 332" width="5" height="5" transform="translate(440 3297)" fill="#242325" opacity="0.2"/>
    <rect id="Rectangle_332-44" data-name="Rectangle 332" width="5" height="5" transform="translate(459 3297)" fill="#242325" opacity="0.2"/>
    <rect id="Rectangle_332-45" data-name="Rectangle 332" width="5" height="5" transform="translate(478 3297)" fill="#242325" opacity="0.2"/>
    <rect id="Rectangle_332-46" data-name="Rectangle 332" width="5" height="5" transform="translate(497 3297)" fill="#242325" opacity="0.2"/>
    <rect id="Rectangle_332-47" data-name="Rectangle 332" width="5" height="5" transform="translate(516 3297)" fill="#242325" opacity="0.2"/>
  </g>
</svg>
